<?xml version="1.0" encoding="utf-8"?>
<!-- Generator: Adobe Illustrator 23.0.5, SVG Export Plug-In . SVG Version: 6.00 Build 0)  -->
<svg version="1.1" id="Layer_1" xmlns="http://www.w3.org/2000/svg" xmlns:xlink="http://www.w3.org/1999/xlink" x="0px" y="0px"
	 viewBox="0 0 600 800" enable-background="new 0 0 600 800" xml:space="preserve">
<linearGradient id="SVGID_1_" gradientUnits="userSpaceOnUse" x1="256" y1="510.75" x2="566.0163" y2="510.75" gradientTransform="matrix(1 0 0 -1 0 800)">
	<stop  offset="0" style="stop-color:#ED1C24"/>
	<stop  offset="1" style="stop-color:#F15A24"/>
</linearGradient>
<path opacity="0.86" fill="url(#SVGID_1_)" enable-background="new    " d="M305.14,361.5c-3.37-2.71-46.14-37.58-48.79-59.9
	c-0.45-3.77-1.34-11.28,3.93-16.91c0.42-0.44,5.26-5.49,11.8-5.64c13.05-0.3,22.88,19.11,26.76,26.78
	c3.45,6.83,10.58,20.9,10.23,39.46c-0.11,5.61-0.87,10.04,0.79,10.57c3.55,1.13,13.35-17.19,19.67-27.48
	c28.09-45.74,72.69-71.8,89.71-81.75c5.86-3.42,28.73-16.16,60.59-24.67c9.06-2.42,19.4-4.64,32.26-4.93
	c25.39-0.58,38.25,6.85,40.92,8.46c9.05,5.46,11.28,10.63,11.8,11.98c0.22,0.56,3.38,8.99-1.57,16.91
	c-3.88,6.22-10.68,8.8-15.74,10.57c-18.89,6.6-36.34,9.72-57.45,13.39c-11.43,1.99-21.45,3.71-34.62,7.75
	c-4.34,1.33-7.65,2.49-12.59,4.23c-5.15,1.81-18.52,6.53-33.05,12.68c-13.46,5.71-29.96,14.38-62.95,31.71
	c-3.53,1.85-5.35,2.82-7.87,4.23C323.92,347.36,312.63,355.58,305.14,361.5z"/>
<linearGradient id="SVGID_2_" gradientUnits="userSpaceOnUse" x1="328.8341" y1="531.7698" x2="379.5112" y2="531.7698" gradientTransform="matrix(1 0 0 -1 0 800)">
	<stop  offset="0" style="stop-color:#ED1C24"/>
	<stop  offset="1" style="stop-color:#F15A24"/>
</linearGradient>
<path opacity="0.86" fill="url(#SVGID_2_)" enable-background="new    " d="M330.71,294.2c-4.21-1.63-1.25-19.7,7.87-33.83
	c6.59-10.2,13.4-13.71,15.74-14.8c3.8-1.78,11.43-5.33,18.1-2.11c3.86,1.86,6.92,5.76,7.08,9.87c0.13,2.99-1.29,5.95-8.66,12.69
	c-11.89,10.87-17.2,11.4-31.48,22.55C333.66,293.02,332.17,294.76,330.71,294.2z"/>
<g>
	<g>
		<path d="M277.38,421.56c-1.88,6.34-6.56,11.13-15.01,11.13c-11.47,0-17.52-9.13-17.52-20.38c0-10.79,5.94-20.61,17.58-20.61
			c8.62,0,13.7,4.79,15.01,11.47h-3.08c-1.83-5.2-5.19-8.62-12.1-8.62c-9.93,0-14.1,9.08-14.1,17.7c0,8.56,4.11,17.58,14.33,17.58
			c6.51,0,9.82-3.37,11.82-8.28L277.38,421.56L277.38,421.56z"/>
		<path d="M307.63,417.91c0,7.93-4.39,15.01-12.9,15.01c-7.71,0-12.5-6.34-12.5-14.96c0-8.16,4.51-14.96,12.79-14.96
			C302.6,403.01,307.63,408.95,307.63,417.91z M285.25,417.97c0,6.79,3.65,12.27,9.7,12.27c6.16,0,9.65-5.08,9.65-12.27
			c0-6.74-3.42-12.27-9.76-12.27C288.33,405.7,285.25,411.12,285.25,417.97z"/>
		<path d="M314.7,411.06c0-2.46,0-5.14-0.06-7.36h2.8c0.06,0.97,0.17,3.42,0.11,5.08c1.2-2.85,3.82-5.77,8.56-5.77
			c4,0,7.13,2,8.28,5.65c1.43-2.97,4.28-5.65,9.3-5.65c4.39,0,8.96,2.51,8.96,10.45v18.78h-2.85V413.8c0-3.82-1.37-7.99-6.68-7.99
			c-5.54,0-8.05,4.45-8.05,9.99v16.44h-2.8v-18.38c0-4.17-1.25-8.05-6.51-8.05c-5.54,0-8.22,4.91-8.22,10.73v15.7h-2.85v-21.18
			H314.7z"/>
		<path d="M362.02,390.17h2.85v18.32c1.37-2.85,4.17-5.48,9.76-5.48c6.74,0,11.7,5.54,11.7,14.33c0,9.02-4.45,15.58-12.44,15.58
			c-4.79,0-7.54-1.94-9.02-5.2c0,1.83-0.06,3.71-0.11,4.51h-2.8c0.06-3.25,0.06-6.51,0.06-9.76L362.02,390.17L362.02,390.17z
			 M383.31,417.4c0-7.13-3.54-11.7-8.96-11.7c-7.13,0-9.65,4.85-9.65,12.33c0,6.74,2.23,12.22,9.3,12.22
			C379.77,430.24,383.31,425.45,383.31,417.4z"/>
		<path d="M416.53,417.91c0,7.93-4.4,15.01-12.9,15.01c-7.71,0-12.5-6.34-12.5-14.96c0-8.16,4.51-14.96,12.79-14.96
			C411.51,403.01,416.53,408.95,416.53,417.91z M394.15,417.97c0,6.79,3.65,12.27,9.7,12.27c6.17,0,9.65-5.08,9.65-12.27
			c0-6.74-3.43-12.27-9.76-12.27C397.24,405.7,394.15,411.12,394.15,417.97z"/>
		<path stroke="#000000" stroke-width="5" stroke-miterlimit="10" d="M439.36,392.28h14.27c7.31,0,12.33,4.05,12.33,11.13
			c0,7.19-4.97,11.42-12.73,11.42H442.5v17.41h-3.14V392.28z M442.5,411.97h11.02c6.45,0,9.13-3.42,9.13-8.45
			c0-5.37-3.54-8.39-8.9-8.39H442.5V411.97z"/>
		<path stroke="#000000" stroke-width="5" stroke-miterlimit="10" d="M473.38,390.17h2.85v5.54h-2.85V390.17z M473.38,403.7h2.85
			v28.54h-2.85V403.7z"/>
		<path stroke="#000000" stroke-width="5" stroke-miterlimit="10" d="M482.17,429.61l18.04-23.23h-17.13v-2.68h20.44v2.74
			l-17.81,23.12h18.44l-0.68,2.68h-21.29v-2.63H482.17z"/>
		<path stroke="#000000" stroke-width="5" stroke-miterlimit="10" d="M506.42,429.61l18.04-23.23h-17.13v-2.68h20.44v2.74
			l-17.81,23.12h18.44l-0.68,2.68h-21.29v-2.63H506.42z"/>
		<path stroke="#000000" stroke-width="5" stroke-miterlimit="10" d="M553.69,426.82c0,2.51,0.23,4.51,0.4,5.42h-2.74
			c-0.23-0.69-0.4-1.94-0.51-4.4c-0.97,2.11-3.48,5.08-9.36,5.08c-6.62,0-9.48-4.28-9.48-8.56c0-6.28,4.85-9.13,13.42-9.13
			c2.4,0,4.28,0,5.42,0v-2.91c0-2.85-0.86-6.68-7.36-6.68c-5.76,0-6.62,3.03-7.25,5.37h-2.85c0.34-3.14,2.28-7.99,10.16-7.99
			c6.51,0,10.16,2.74,10.16,9.02v14.78H553.69z M550.89,417.68c-1.08,0-3.71,0-5.59,0c-6.34,0-10.28,1.66-10.28,6.56
			c0,3.6,2.57,6.05,6.57,6.05c8.16,0,9.3-5.42,9.3-11.59L550.89,417.68L550.89,417.68z"/>
	</g>
</g>
<text transform="matrix(1 0 0 1 244.8499 459.2666)" font-family="'MyriadPro-Regular'" font-size="16.6452px">Starting....</text>
</svg>
