<?xml version="1.0" encoding="utf-8"?>
<!-- Generator: Adobe Illustrator 23.0.5, SVG Export Plug-In . SVG Version: 6.00 Build 0)  -->
<svg version="1.1" id="Layer_1" xmlns="http://www.w3.org/2000/svg" xmlns:xlink="http://www.w3.org/1999/xlink" x="0px" y="0px"
	 viewBox="0 0 600 800" enable-background="new 0 0 600 800" xml:space="preserve">
<g>
	<linearGradient id="SVGID_1_" gradientUnits="userSpaceOnUse" x1="113" y1="196" x2="251" y2="196">
		<stop  offset="0" style="stop-color:#F7931E"/>
		<stop  offset="1" style="stop-color:#FBB03B"/>
	</linearGradient>
	<path fill="url(#SVGID_1_)" d="M251,83v226c0,6.6-5.4,12-12,12H125c-6.6,0-12-5.4-12-12V83c0-6.6,5.4-12,12-12h18v2
		c0,6.6,5.4,12,12,12h54c6.6,0,12-5.4,12-12v-2h18C245.6,71,251,76.4,251,83z"/>
</g>
<g>
	<circle fill="#FFFFFF" cx="130" cy="76" r="4"/>
</g>
<g>
	<g>
		<path d="M30.26,23.8c1.93-0.32,4.22-0.53,6.71-0.53c4.52,0,7.75,1.07,9.89,3.07c2.18,1.98,3.46,4.8,3.46,8.73
			c0,4-1.25,7.24-3.51,9.49c-2.31,2.27-6.08,3.52-10.81,3.52c-2.26,0-4.13-0.09-5.73-0.27V23.8z M33.43,45.39
			c0.8,0.13,1.97,0.15,3.17,0.15c6.76,0.02,10.39-3.75,10.39-10.35c0.04-5.76-3.22-9.4-9.87-9.4c-1.63,0-2.85,0.15-3.69,0.32V45.39z
			"/>
		<path d="M70.13,38.94c0,6.48-4.5,9.32-8.71,9.32c-4.75,0-8.42-3.46-8.42-9.02c0-5.86,3.85-9.29,8.7-9.29
			C66.73,29.96,70.13,33.61,70.13,38.94z M56.24,39.15c0,3.84,2.2,6.73,5.31,6.73c3.05,0,5.34-2.85,5.34-6.83
			c0-2.96-1.49-6.71-5.28-6.71C57.87,32.34,56.24,35.83,56.24,39.15z"/>
		<path d="M75.4,30.36l2.35,8.89c0.5,1.96,0.95,3.79,1.3,5.59h0.09c0.39-1.76,0.97-3.67,1.57-5.56l2.86-8.91h2.68l2.72,8.76
			c0.63,2.08,1.14,3.93,1.55,5.72h0.08c0.32-1.77,0.79-3.62,1.36-5.69l2.5-8.79h3.14l-5.66,17.51h-2.89l-2.66-8.36
			c-0.63-1.96-1.13-3.72-1.55-5.77h-0.07c-0.44,2.11-0.99,3.93-1.6,5.8l-2.82,8.33h-2.91l-5.28-17.51H75.4z"/>
		<path d="M100.8,35.09c0-1.83-0.06-3.28-0.14-4.73h2.81l0.18,2.88h0.09c0.86-1.65,2.9-3.28,5.79-3.28c2.41,0,6.17,1.45,6.17,7.46
			v10.45h-3.17v-10.1c0-2.83-1.07-5.2-4.05-5.2c-2.09,0-3.72,1.49-4.29,3.27c-0.13,0.39-0.22,0.95-0.22,1.48v10.55h-3.17V35.09z"/>
		<path d="M120.89,22.16h3.17v25.71h-3.17V22.16z"/>
		<path d="M145.28,38.94c0,6.48-4.5,9.32-8.71,9.32c-4.75,0-8.42-3.46-8.42-9.02c0-5.86,3.85-9.29,8.7-9.29
			C141.89,29.96,145.28,33.61,145.28,38.94z M131.4,39.15c0,3.84,2.2,6.73,5.31,6.73c3.05,0,5.34-2.85,5.34-6.83
			c0-2.96-1.49-6.71-5.28-6.71C133.02,32.34,131.4,35.83,131.4,39.15z"/>
		<path d="M159.02,47.87l-0.28-2.21h-0.09c-0.96,1.37-2.85,2.61-5.36,2.61c-3.54,0-5.35-2.51-5.35-5.02c0-4.24,3.76-6.57,10.52-6.52
			v-0.37c0-1.42-0.4-4.06-3.99-4.04c-1.63,0-3.33,0.49-4.56,1.31l-0.72-2.12c1.45-0.94,3.57-1.54,5.78-1.54
			c5.35,0,6.66,3.66,6.66,7.17v6.55c0,1.5,0.07,2.99,0.26,4.19H159.02z M158.52,38.93c-3.45-0.07-7.39,0.55-7.39,3.93
			c0,2.09,1.38,3.05,2.97,3.05c2.31,0,3.76-1.45,4.27-2.93c0.11-0.34,0.15-0.7,0.15-1V38.93z"/>
		<path d="M181.87,22.16v21.19c0,1.56,0.06,3.31,0.14,4.52h-2.83l-0.16-3.03h-0.08c-0.97,1.96-3.08,3.43-5.94,3.43
			c-4.24,0-7.52-3.59-7.52-8.9c-0.03-5.85,3.6-9.41,7.87-9.41c2.69,0,4.5,1.26,5.28,2.66h0.07V22.16H181.87z M178.71,37.48
			c0-0.41-0.04-0.94-0.13-1.36c-0.5-2.01-2.21-3.66-4.61-3.66c-3.3,0-5.27,2.89-5.27,6.74c0,3.56,1.77,6.51,5.21,6.51
			c2.13,0,4.07-1.44,4.65-3.82c0.11-0.42,0.16-0.87,0.16-1.37V37.48z"/>
		<path d="M200.26,41.6l-1.72,6.27h-5.71l7.45-24.4h7.22l7.6,24.4h-5.95l-1.88-6.27H200.26z M206.46,37.49l-1.52-5.19
			c-0.42-1.44-0.85-3.27-1.23-4.7h-0.08c-0.36,1.44-0.73,3.29-1.12,4.71l-1.46,5.18H206.46z"/>
		<path d="M218.15,36.1c0-2.33-0.07-4.29-0.15-5.96h4.79l0.25,2.48h0.07c1.31-1.87,3.33-2.88,5.9-2.88c3.88,0,7.36,3.37,7.36,9.03
			c0,6.46-4.12,9.49-8.06,9.49c-2.12,0-3.81-0.85-4.59-2.02h-0.07v8.79h-5.51V36.1z M223.66,40.28c0,0.41,0.03,0.8,0.11,1.15
			c0.36,1.48,1.63,2.61,3.22,2.61c2.38,0,3.8-2.01,3.8-5.01c0-2.82-1.26-4.97-3.71-4.97c-1.56,0-2.96,1.18-3.29,2.79
			c-0.08,0.31-0.13,0.65-0.13,0.98V40.28z"/>
		<path d="M239.8,36.1c0-2.33-0.07-4.29-0.15-5.96h4.79l0.25,2.48h0.07c1.31-1.87,3.33-2.88,5.9-2.88c3.88,0,7.36,3.37,7.36,9.03
			c0,6.46-4.12,9.49-8.06,9.49c-2.12,0-3.81-0.85-4.59-2.02h-0.07v8.79h-5.51V36.1z M245.31,40.28c0,0.41,0.03,0.8,0.11,1.15
			c0.36,1.48,1.63,2.61,3.22,2.61c2.38,0,3.8-2.01,3.8-5.01c0-2.82-1.26-4.97-3.71-4.97c-1.56,0-2.96,1.18-3.29,2.79
			c-0.08,0.31-0.13,0.65-0.13,0.98V40.28z"/>
		<path d="M29.92,91.31v-24.4h6.43l5.07,8.95c1.46,2.56,2.89,5.61,3.99,8.37l0.09-0.01c-0.34-3.23-0.45-6.51-0.45-10.2v-7.12h5.07
			v24.4h-5.78l-5.23-9.4c-1.46-2.63-3.06-5.76-4.24-8.62l-0.12,0.01c0.17,3.23,0.24,6.69,0.24,10.67v7.34H29.92z"/>
		<path d="M72.18,82.27c0,6.48-4.59,9.44-9.34,9.44c-5.16,0-9.15-3.41-9.15-9.13c0-5.72,3.77-9.39,9.47-9.39
			C68.58,73.19,72.18,76.92,72.18,82.27z M59.37,82.45c0,3.02,1.28,5.32,3.63,5.32c2.15,0,3.51-2.15,3.51-5.35
			c0-2.61-1.01-5.3-3.5-5.3C60.37,77.13,59.37,79.83,59.37,82.45z"/>
		<path d="M79.4,73.59l1.42,7.27c0.35,1.82,0.71,3.79,1.01,5.81h0.08c0.33-2.01,0.87-4.03,1.3-5.77l1.86-7.3h4.37l1.77,7.06
			c0.48,2.02,0.95,4,1.29,6.02h0.08c0.25-2.01,0.61-4.01,1.02-6.05l1.51-7.03h5.38l-5.42,17.72h-5.16l-1.66-6.21
			c-0.46-1.74-0.78-3.33-1.15-5.53h-0.07c-0.32,2.22-0.69,3.87-1.13,5.5l-1.77,6.24h-5.17l-5.16-17.72H79.4z"/>
	</g>
</g>
<path fill="none" stroke="#FF931E" stroke-miterlimit="10" d="M242.92,326.5H121.08c-7.47,0-13.58-6.11-13.58-13.58V79.08
	c0-7.47,6.11-13.58,13.58-13.58h121.84c7.47,0,13.58,6.11,13.58,13.58v233.84C256.5,320.39,250.39,326.5,242.92,326.5z"/>
</svg>
